<?xml version="1.0" standalone="no"?>
<!DOCTYPE svg PUBLIC "-//W3C//DTD SVG 20010904//EN"
 "http://www.w3.org/TR/2001/REC-SVG-20010904/DTD/svg10.dtd">
<svg version="1.0" xmlns="http://www.w3.org/2000/svg"
 width="1440.000000pt" height="1024.000000pt" viewBox="0 0 1440.000000 1024.000000"
 preserveAspectRatio="xMidYMid meet">

<g transform="translate(0.000000,1024.000000) scale(0.100000,-0.100000)"
fill="#000000" stroke="none">
<path d="M6945 9484 c-325 -18 -852 -107 -930 -158 -76 -50 -39 -176 51 -176
15 0 97 16 183 35 727 162 1464 127 2158 -101 493 -162 980 -435 1367 -766
186 -159 430 -414 564 -588 106 -138 120 -150 168 -150 52 0 91 29 100 74 8
43 -6 69 -102 193 -716 917 -1770 1498 -2934 1618 -148 15 -499 26 -625 19z"/>
<path d="M6985 7640 c-473 -34 -924 -199 -1296 -476 -376 -280 -660 -652 -829
-1086 -173 -444 -210 -951 -104 -1426 70 -315 225 -650 420 -913 280 -376 652
-660 1084 -828 447 -175 952 -212 1428 -105 315 70 650 225 913 420 376 280
660 652 828 1084 175 447 212 952 105 1428 -70 315 -225 650 -420 913 -410
551 -1024 905 -1694 978 -145 15 -313 20 -435 11z m462 -55 c278 -37 506 -105
758 -230 273 -134 459 -269 670 -487 290 -298 490 -648 594 -1040 60 -224 81
-388 81 -635 0 -391 -74 -712 -245 -1058 -134 -273 -269 -459 -487 -670 -298
-290 -648 -490 -1040 -594 -224 -60 -388 -81 -635 -81 -391 0 -712 74 -1058
245 -273 134 -459 269 -670 487 -290 298 -490 648 -594 1040 -60 224 -81 388
-81 635 0 391 74 712 245 1058 134 273 269 459 487 670 382 372 859 599 1393
664 122 15 454 12 582 -4z"/>
<path d="M6572 5990 c-34 -16 -93 -47 -130 -68 -37 -22 -94 -54 -127 -72 -33
-18 -166 -92 -295 -165 -129 -73 -275 -154 -324 -181 -140 -77 -186 -144 -186
-267 0 -67 33 -149 76 -188 16 -14 196 -128 399 -254 204 -125 422 -260 485
-299 113 -70 116 -71 191 -75 70 -3 83 0 129 25 88 48 140 135 140 235 0 58
-35 140 -77 180 -21 20 -135 96 -253 169 -301 185 -310 191 -310 199 0 3 129
78 287 166 288 162 308 176 349 255 26 51 24 172 -3 225 -69 131 -215 179
-351 115z"/>
<path d="M7550 5991 c-58 -13 -83 -27 -122 -66 -48 -49 -71 -98 -76 -166 -10
-134 40 -199 250 -324 18 -11 47 -29 65 -40 18 -11 83 -51 145 -89 62 -38 138
-86 168 -106 30 -21 138 -89 241 -153 209 -130 261 -149 345 -128 92 23 162
92 191 186 29 94 -3 199 -82 268 -23 20 -322 207 -331 207 -3 0 -27 14 -52 32
-111 75 -131 88 -135 88 -3 0 -110 65 -237 145 -128 80 -243 145 -255 145 -12
0 -35 2 -51 4 -16 3 -45 1 -64 -3z"/>
<path d="M6150 3989 c-31 -13 -37 -22 -45 -77 -8 -53 2 -134 19 -158 14 -19
106 -31 151 -20 24 6 25 10 25 71 l0 65 -45 0 c-25 0 -45 -4 -45 -10 0 -5 14
-10 30 -10 29 0 30 -2 30 -44 0 -41 -2 -45 -30 -51 -42 -9 -97 11 -104 38 -12
44 -6 132 10 155 13 19 24 22 85 22 72 0 92 13 38 24 -44 8 -89 7 -119 -5z"/>
<path d="M6380 3865 l0 -138 76 5 c103 7 109 14 109 133 0 71 -4 98 -15 109
-9 9 -46 18 -92 22 l-78 7 0 -138z m141 95 c16 -9 19 -22 19 -93 0 -51 -5 -88
-12 -95 -7 -7 -38 -12 -70 -12 l-58 0 0 105 0 105 51 0 c28 0 59 -5 70 -10z"/>
<path d="M6663 3990 c-26 -11 -41 -70 -26 -103 8 -18 23 -24 79 -32 69 -10 69
-10 72 -44 2 -18 -1 -38 -7 -44 -5 -5 -40 -9 -76 -9 -48 1 -65 -2 -62 -11 5
-18 127 -21 150 -5 10 8 21 32 24 55 7 54 -20 83 -78 83 -52 0 -79 15 -79 43
0 37 19 47 87 47 63 0 83 12 41 24 -33 8 -99 6 -125 -4z"/>
<path d="M6921 3987 c-32 -16 -44 -64 -38 -151 6 -89 23 -106 108 -106 44 0
59 4 59 14 0 11 -14 14 -55 14 -76 -1 -85 9 -85 99 0 103 7 113 80 113 57 0
78 11 44 24 -26 10 -87 6 -113 -7z"/>
<path d="M7271 3978 c-23 -63 -80 -215 -86 -230 -5 -13 -2 -18 8 -18 9 0 20
15 27 35 l12 35 64 0 c65 0 65 0 80 -35 13 -32 34 -48 34 -26 0 10 -78 218
-91 243 -13 25 -38 23 -48 -4z m58 -87 c11 -30 19 -56 17 -58 -2 -2 -26 -3
-53 -1 l-49 3 24 63 c13 35 28 60 32 55 5 -4 18 -32 29 -62z"/>
<path d="M7470 3865 c0 -113 2 -135 15 -135 13 0 15 22 15 135 0 113 -2 135
-15 135 -13 0 -15 -22 -15 -135z"/>
<path d="M7587 3993 c-4 -3 -7 -64 -7 -135 0 -107 2 -128 15 -128 12 0 15 13
15 60 0 60 0 60 29 60 24 0 37 -10 73 -60 25 -34 51 -60 61 -60 14 0 9 12 -26
58 -24 31 -47 63 -51 70 -4 7 11 35 38 70 25 32 46 61 46 65 0 20 -25 1 -67
-53 -38 -47 -54 -60 -75 -60 -27 0 -28 1 -28 60 0 55 -6 70 -23 53z"/>
<path d="M7820 3985 c0 -11 11 -15 40 -15 l40 0 0 -120 c0 -100 3 -120 15
-120 13 0 15 20 15 120 l0 120 46 0 c32 0 44 4 42 13 -3 8 -35 13 -101 15 -82
2 -97 0 -97 -13z"/>
<path d="M8103 3990 c-12 -5 -25 -21 -28 -35 -3 -14 -7 -37 -11 -51 -9 -44 7
-135 27 -155 24 -24 139 -28 139 -5 0 11 -14 15 -56 15 -31 0 -62 5 -68 11 -6
6 -11 46 -11 96 0 99 4 104 83 104 51 0 68 12 36 24 -22 9 -85 6 -111 -4z"/>
<path d="M9292 7143 c-20 -18 -26 -32 -23 -64 0 -8 35 -58 77 -110 299 -374
502 -830 583 -1308 98 -579 1 -1206 -268 -1740 -17 -33 -31 -70 -31 -81 0 -50
79 -80 113 -42 24 26 117 228 170 367 77 204 126 400 164 651 25 167 25 607 0
779 -76 512 -270 984 -569 1382 -132 177 -170 205 -216 166z"/>
<path d="M10597 6927 c-64 -15 -59 -13 -106 -33 -18 -8 -37 -14 -41 -14 -4 0
-41 -22 -81 -48 -193 -126 -319 -356 -319 -582 0 -161 72 -345 182 -464 326
-356 892 -275 1103 159 99 201 99 406 0 610 -79 165 -230 297 -399 351 -99 31
-251 40 -339 21z m240 -557 c101 -58 183 -109 183 -115 -1 -5 -89 -61 -198
-123 -108 -63 -216 -125 -239 -138 l-43 -25 0 286 0 286 58 -32 c31 -18 139
-81 239 -139z"/>
<path d="M5621 2489 c-138 -27 -258 -89 -361 -186 -124 -116 -196 -244 -226
-401 -54 -281 72 -575 316 -737 75 -50 193 -100 215 -91 11 4 15 23 15 81 l0
75 -75 0 c-105 0 -145 21 -180 95 -14 31 -44 72 -65 93 -47 44 -49 52 -12 52
38 0 84 -31 118 -78 16 -22 41 -48 56 -56 27 -17 114 -21 135 -8 9 6 63 98 63
108 0 1 -21 4 -47 8 -69 9 -162 56 -205 104 -88 97 -104 299 -33 412 20 31 23
46 18 96 -6 68 11 144 32 144 26 0 108 -31 148 -57 35 -22 43 -23 88 -14 64
14 214 14 278 0 46 -10 54 -8 81 11 31 22 128 60 154 60 22 0 39 -75 33 -145
-5 -49 -2 -64 15 -88 74 -104 59 -321 -30 -419 -43 -48 -136 -95 -204 -104
-27 -4 -48 -8 -48 -10 0 -2 9 -18 20 -36 17 -29 20 -51 20 -176 0 -163 1 -165
78 -137 182 67 358 238 428 417 113 289 43 588 -189 804 -136 127 -311 195
-496 193 -53 -1 -116 -5 -140 -10z"/>
</g>
</svg>
